/* XPM */
static char *_d962b7362fb4d90fa430cb9e67c8ff9gNo5ZDd7wqtE2uSL[] = {
/* columns rows colors chars-per-pixel */
"32 32 5 1 ",
"  c None",
". c #577572",
"X c #859F9C",
"o c #ACBCBA",
"O c #EEEEEE",
/* pixels */
"                                ",
"                                ",
"              ....              ",
"              ....              ",
"            ..XXXX..            ",
"            ..XXXX..            ",
"          ..XXOOOOXX..          ",
"          ..XXOOOOXX..          ",
"        ..XXOOooooOOXX..        ",
"        ..XXOOooooOOXX..        ",
"      ..XXOOooXXXXooOOXX..      ",
"      ..XXOOooXXXXooOOXX..      ",
"    ..XXOOooXX    XXooOOXX..    ",
"    ..XXOOooXX    XXooOOXX..    ",
"  ..XXOOooXX  OOOO  XXooOOXX..  ",
"  ..XXOOooXX  OOOO  XXooOOXX..  ",
"  ..XXOOooXX  ooOO  XXooOOXX..  ",
"  ..XXOOooXX  ooOO  XXooOOXX..  ",
"    ..XXOOooXX    XXooOOXX..    ",
"    ..XXOOooXX    XXooOOXX..    ",
"      ..XXOOooXXXXooOOXX..      ",
"      ..XXOOooXXXXooOOXX..      ",
"        ..XXOOooooOOXX..        ",
"        ..XXOOooooOOXX..        ",
"          ..XXOOOOXX..          ",
"          ..XXOOOOXX..          ",
"            ..XXXX..            ",
"            ..XXXX..            ",
"              ....              ",
"              ....              ",
"                                ",
"                                ",
};
