/* XPM */
static char *a43a76de8a184339f3adea952b7c305761IOGh7XMZMmR7il[] = {
/* columns rows colors chars-per-pixel */
"32 32 2 1 ",
"  c None",
". c #382E2F",
/* pixels */
"................................",
"................................",
"................................",
"................................",
"................................",
"................................",
"..  ..  ..  ..  ..  ..  ..  ....",
"..  ..  ..  ..  ..  ..  ..  ....",
"....  ..  ..  ..  ..  ..  ..  ..",
"....  ..  ..  ..  ..  ..  ..  ..",
"................................",
"................................",
"..            ....            ..",
"..            ....            ..",
"......    ....    ....    ......",
"......    ....    ....    ......",
"......    ....    ....    ......",
"......    ....    ....    ......",
"..    ....            ....    ..",
"..    ....            ....    ..",
"..    ....            ....    ..",
"..    ....            ....    ..",
"......    ....    ....    ......",
"......    ....    ....    ......",
"......    ....    ....    ......",
"......    ....    ....    ......",
"..            ....            ..",
"..            ....            ..",
"..            ....            ..",
"..            ....            ..",
"................................",
"................................",
};
