/* XPM */
static char *_7f1516e20e64d788af3b398160d87c8FbhFXBI4xb5ecg54[] = {
/* columns rows colors chars-per-pixel */
"32 32 4 1 ",
"  c None",
". c #577572",
"X c #859F9C",
"o c #ACBCBA",
/* pixels */
"oooooooooooooooooooooooooooooooo",
"oooooooooooooooooooooooooooooooo",
"....XXXXXXXXXXXX..XXXXXXXXXXXXoo",
"....XXXXXXXXXXXX..XXXXXXXXXXXXoo",
"..XX..XXXXXXXXXX..XXXXXXXXXXXXoo",
"..XX..XXXXXXXXXX..XXXXXXXXXXXXoo",
"..XXXX..XXXXXXXX............XXoo",
"..XXXX..XXXXXXXX............XXoo",
"..XX..XXXXXXXXXX..oooooooo..XXoo",
"..XX..XXXXXXXXXX..oooooooo..XXoo",
"....XXXX..XXXXXX..XXXXXXXX..XXoo",
"....XXXX..XXXXXX..XXXXXXXX..XXoo",
"..XX..XXXXXXXXXX..XXXXXXXX..XXoo",
"..XX..XXXXXXXXXX..XXXXXXXX..XXoo",
"....................XXXXXX..XXoo",
"....................XXXXXX..XXoo",
"..oooooooo..oooooo............oo",
"..oooooooo..oooooo............oo",
"..XXXX..XX..XXXXXX..oooooooooooo",
"..XXXX..XX..XXXXXX..oooooooooooo",
"..XX..XXXX..XXXXXX..XXXXXXXXXXoo",
"..XX..XXXX..XXXXXX..XXXXXXXXXXoo",
"..XXXXXXXX..........XXXXXXXXXXoo",
"..XXXXXXXX..........XXXXXXXXXXoo",
"..XX..XXXXoooooooo..XXXXXXXXXXoo",
"..XX..XXXXoooooooo..XXXXXXXXXXoo",
"....XXXXXXXXXXXXXX..XXXXXXXXXXoo",
"....XXXXXXXXXXXXXX..XXXXXXXXXXoo",
"..XX..XX..XXXXXXXX..XXXXXXXXXXoo",
"..XX..XX..XXXXXXXX..XXXXXXXXXXoo",
"................................",
"................................",
};
