/* XPM */
static char *_dfef1de7fb64beabee4c354d2b503e40ndHcqgoPD8kLJ69[] = {
/* columns rows colors chars-per-pixel */
"32 32 3 1 ",
"  c None",
". c #343332",
"X c #E2E1DF",
/* pixels */
"                                ",
"                                ",
"                                ",
"                                ",
"             ..          ..     ",
"             ..          ..     ",
"             ....      ....     ",
"             ....      ....     ",
"             ..............     ",
"             ..............     ",
"           ..................   ",
"           ..................   ",
"           ..................   ",
"           ..................   ",
"           ......XX..XX......   ",
"           ......XX..XX......   ",
"             ..............     ",
"             ..............     ",
"               XX  XX  XX       ",
"               XX  XX  XX       ",
"                 ......         ",
"                 ......         ",
"     ..      ..............     ",
"     ..      ..............     ",
"       ....  ..............     ",
"       ....  ..............     ",
"         ..................     ",
"         ..................     ",
"                                ",
"                                ",
"                                ",
"                                ",
};
