/* XPM */
static char *c1555bea563246968b3054dbb65d54f7xHCMrBYX6ao0Mt3R[] = {
/* columns rows colors chars-per-pixel */
"32 32 7 1 ",
"  c None",
". c #313635",
"X c #577572",
"o c #6C8C88",
"O c #859F9C",
"+ c #ACBCBA",
"@ c #EEEEEE",
/* pixels */
"oo@@@@@@@@@@@@@@@@@@@@@@@@@@@@oo",
"oo@@@@@@@@@@@@@@@@@@@@@@@@@@@@oo",
"..OO++++++++++++++++++++++++++@@",
"..OO++++++++++++++++++++++++++@@",
"..XX++OO++++OOOO++++OO++OO++++@@",
"..XX++OO++++OOOO++++OO++OO++++@@",
"..XXOO++OOOOOO++OOOO++OOOOOO++@@",
"..XXOO++OOOOOO++OOOO++OOOOOO++@@",
"..XXOOOOOOOOOOOO++OOOOOOOO++++@@",
"..XXOOOOOOOOOOOO++OOOOOOOO++++@@",
"..XXOOOOOOOOOOOOOOOO++OO++++++@@",
"..XXOOOOOOOOOOOOOOOO++OO++++++@@",
"..XXOOOOOOOOOOOOOOOOOOOOOOOO++@@",
"..XXOOOOOOOOOOOOOOOOOOOOOOOO++@@",
"..XXXXOOOOOOOOOOOOOOOO++OO++++@@",
"..XXXXOOOOOOOOOOOOOOOO++OO++++@@",
"..XXOOXXOOOOOOOOOOOOOOOOOO++++@@",
"..XXOOXXOOOOOOOOOOOOOOOOOO++++@@",
"..XXXXOOXXOOOOOOOOOOOOOO++OO++@@",
"..XXXXOOXXOOOOOOOOOOOOOO++OO++@@",
"..XXOOOOOOOOOOOOOOOOOOOOOO++++@@",
"..XXOOOOOOOOOOOOOOOOOOOOOO++++@@",
"..XXXXOOXXOOOOOOOOOOOOOOOO++++@@",
"..XXXXOOXXOOOOOOOOOOOOOOOO++++@@",
"..XXOOXXOOOOXXOOXXOOXXOOOOOO++@@",
"..XXOOXXOOOOXXOOXXOOXXOOOOOO++@@",
"..XXXXXXXXXXOOXXOOXXOOOOXXOO++@@",
"..XXXXXXXXXXOOXXOOXXOOOOXXOO++@@",
"..XXXXXXXXXXXXXXXXXXXXXXXXXXXX..",
"..XXXXXXXXXXXXXXXXXXXXXXXXXXXX..",
"oo............................oo",
"oo............................oo",
};
